<svg width="102" height="33" viewBox="0 0 102 33" fill="none" xmlns="http://www.w3.org/2000/svg">
<g clip-path="url(#clip0_9881_9441)">
<g clip-path="url(#clip1_9881_9441)">
<path d="M24.6445 21.495C25.1796 21.3251 25.7394 21.1695 26.3275 21.0297C26.4882 20.9908 26.5554 20.7979 26.4529 20.667C25.8489 19.8922 25.1814 19.0412 24.4361 18.1248C24.4255 18.0594 24.4149 17.9992 24.4043 17.9444V17.9409C24.3655 17.7215 24.316 17.4756 24.2542 17.1908C24.2012 16.9448 24.1447 16.6954 24.0935 16.4743V16.4725V16.4619L24.09 16.4548C24.0175 16.1381 23.9434 15.8109 23.871 15.4659C23.7915 15.0873 23.7279 14.7476 23.6767 14.4239C23.5637 13.7198 23.5778 13.0458 23.7191 12.4195C23.8233 11.9595 23.9946 11.5279 24.2277 11.1334C24.3531 10.9228 24.4944 10.7229 24.6516 10.5372C24.7875 10.3762 24.9023 10.2647 24.9589 10.2134H24.9624L24.9641 10.2081L24.9959 10.1798L25.0277 10.1515L25.6971 9.53233C25.9319 9.31474 26.0149 8.98038 25.9108 8.67786L25.6123 7.81454L24.973 5.95876L24.3337 4.10475L24.097 3.41657C24.0123 3.16889 23.8109 2.97783 23.5584 2.9053L22.859 2.70539L13.8522 0.140201L13.4707 0.0305169C13.3277 -0.0101723 13.174 -0.0101723 13.031 0.0305169L12.6477 0.140201L3.64266 2.70893L2.94331 2.90884C2.69076 2.98137 2.48943 3.17243 2.40466 3.42011L2.16801 4.10828L1.5287 5.96407L0.889393 7.81808L0.590931 8.68494C0.486734 8.98745 0.571504 9.32358 0.806388 9.53941L1.48102 10.1586L1.51281 10.1869L1.54283 10.2152C1.57815 10.247 1.6223 10.2895 1.67352 10.3443C1.7265 10.3992 1.78478 10.4646 1.85012 10.5407C2.0073 10.7265 2.15035 10.9264 2.27397 11.1351C2.50709 11.5296 2.6784 11.9613 2.7826 12.4213C2.92388 13.0475 2.93977 13.7216 2.82498 14.4239C2.772 14.7476 2.70842 15.0908 2.62895 15.4694C2.55831 15.8109 2.48237 16.1381 2.41173 16.4548V16.4637L2.40819 16.4672V16.4707L2.40113 16.499V16.5008L2.39583 16.5256C2.34638 16.7414 2.29163 16.9838 2.24042 17.2208C2.18214 17.4897 2.13446 17.725 2.09737 17.9391C2.08677 17.9939 2.07794 18.0523 2.06735 18.1178C1.32031 19.0359 0.652742 19.8869 0.048754 20.6635C-0.0536767 20.7944 0.0134331 20.9872 0.174143 21.0262C0.760471 21.1659 1.32031 21.3216 1.85719 21.4914C1.19492 22.3105 0.596229 23.073 0.048754 23.7771C-0.0536767 23.908 0.0151991 24.1008 0.175909 24.1398C3.54553 24.9412 6.03565 26.2804 8.03835 27.7045C10.0446 29.1445 11.5651 30.6713 13.0945 32.2015C13.1828 32.29 13.3241 32.29 13.4124 32.2015C14.9418 30.6713 16.4606 29.1445 18.4686 27.7045C20.4713 26.2804 22.9615 24.9412 26.3311 24.1398C26.4918 24.1008 26.5589 23.908 26.4582 23.7771C25.9108 23.0748 25.3121 22.3105 24.6498 21.4914L24.6445 21.495ZM3.60734 6.68232L4.24665 4.82831L13.2517 2.25958L22.2568 4.82831L22.8961 6.68232L23.5354 8.53633L23.5036 8.56464L23.4718 8.59294C23.3517 8.7044 23.1734 8.87954 22.9738 9.1166C22.7743 9.35365 22.55 9.65263 22.338 10.01C22.0519 10.4912 21.757 11.1351 21.5751 11.933C21.395 12.7309 21.3296 13.6809 21.5062 14.7742C21.5698 15.174 21.644 15.5543 21.7199 15.917C21.7959 16.2779 21.8736 16.6211 21.9477 16.9431V16.9537L21.953 16.9643C22.0043 17.1925 22.059 17.426 22.1084 17.6578C22.1579 17.8878 22.2056 18.116 22.2444 18.3318C22.2957 18.6184 22.3469 18.9492 22.3663 19.3031C22.3857 19.6569 22.3769 20.0302 22.3062 20.3999C22.2904 20.4795 22.2727 20.5591 22.2533 20.637C22.2338 20.7148 22.2109 20.7926 22.1862 20.8687C22.0802 21.1924 21.923 21.5144 21.7146 21.8399C21.5062 22.1655 21.2449 22.4927 20.9287 22.8289C20.844 22.9067 20.7574 22.9863 20.6691 23.0642C20.5808 23.1438 20.489 23.2216 20.3954 23.3012C19.9715 23.6586 19.4664 23.9876 18.9243 24.2972C18.3839 24.6086 17.8064 24.9022 17.2377 25.1906C16.5525 25.5391 15.8549 25.8929 15.1802 26.291C14.5056 26.689 13.8522 27.1295 13.2535 27.6497C12.6548 27.1278 12.0014 26.6873 11.3267 26.2892C10.6521 25.8929 9.95451 25.5374 9.26929 25.1888C8.70062 24.9005 8.12312 24.6068 7.58095 24.2954C7.03877 23.9841 6.53545 23.6568 6.10983 23.2994C6.01799 23.2216 5.92793 23.1438 5.83962 23.0659C5.75132 22.9881 5.66655 22.912 5.58531 22.8359C5.26742 22.498 5.00428 22.169 4.79412 21.8417C4.58396 21.5144 4.42855 21.1907 4.32082 20.8652C4.2961 20.7909 4.27314 20.713 4.25371 20.6352C4.23429 20.5573 4.21663 20.4777 4.20073 20.3964C4.13009 20.0266 4.11949 19.6533 4.14069 19.3013C4.16188 18.9492 4.21133 18.6166 4.26431 18.3301C4.3014 18.1213 4.34555 17.909 4.39323 17.6879C4.44091 17.4685 4.49213 17.2421 4.54511 17.0103L4.55218 16.982L4.55924 16.9537C4.63341 16.63 4.71112 16.285 4.78706 15.9223C4.863 15.5579 4.93717 15.1758 5.00252 14.7742C5.17912 13.6809 5.11378 12.7291 4.93364 11.933C4.7535 11.1351 4.45681 10.4912 4.17071 10.01C3.95878 9.65263 3.73626 9.35365 3.53493 9.1166C3.33537 8.87954 3.157 8.7044 3.03691 8.59294L3.00512 8.56464L2.97333 8.53633L3.61264 6.68055L3.60734 6.68232Z" fill="#191920"/>
<path d="M19.7903 15.2217L18.0649 12.2284L14.976 14.0152V10.4434H11.5269V14.0169L8.43637 12.2284L6.71094 15.2217L9.80152 17.0102L6.71094 18.7953L8.43637 21.7886L11.5269 20V23.5771H14.976V20.0036L18.0649 21.7886L19.7903 18.7953L16.6997 17.0102L19.7903 15.2217Z" fill="#191920"/>
<path d="M6.98645 7.80687L6.28533 8.16953C6.20232 8.21199 6.10696 8.14299 6.12108 8.051L6.24824 7.27083L5.68664 6.71533C5.61953 6.64988 5.65661 6.53665 5.74845 6.5225L6.52904 6.40397L6.88225 5.6981C6.92464 5.61496 7.04296 5.61496 7.08535 5.6981L7.43856 6.40397L8.21915 6.5225C8.31098 6.53665 8.34807 6.64988 8.28096 6.71533L7.71936 7.27083L7.84651 8.051C7.86241 8.14299 7.76527 8.21376 7.68227 8.16953L6.98115 7.80687H6.98645Z" fill="#FF4B33"/>
<path d="M19.5099 7.80687L18.8088 8.16953C18.7258 8.21199 18.6304 8.14299 18.6445 8.051L18.7717 7.27083L18.2101 6.71533C18.143 6.64988 18.1801 6.53665 18.2719 6.5225L19.0525 6.40397L19.4057 5.6981C19.4481 5.61496 19.5664 5.61496 19.6088 5.6981L19.962 6.40397L20.7426 6.5225C20.8344 6.53665 20.8715 6.64988 20.8044 6.71533L20.2428 7.27083L20.37 8.051C20.3858 8.14299 20.2887 8.21376 20.2057 8.16953L19.5046 7.80687H19.5099Z" fill="#FF4B33"/>
<path d="M13.2488 7.60983L12.1751 8.16533C12.0921 8.20779 11.9967 8.13879 12.0108 8.0468L12.2069 6.85266L11.3468 6.00173C11.2797 5.93627 11.3168 5.82305 11.4086 5.80889L12.6025 5.62668L13.1446 4.54576C13.187 4.46261 13.3053 4.46261 13.3477 4.54576L13.8899 5.62668L15.0837 5.80889C15.1756 5.82305 15.2127 5.93627 15.1456 6.00173L14.2855 6.85266L14.4815 8.0468C14.4974 8.13879 14.4003 8.20956 14.3173 8.16533L13.2435 7.60983H13.2488Z" fill="#FF4B33"/>
</g>
<path d="M95.6234 21.4097V6.44431H93.1602V3.65918H101.503V6.44431H99.0523V21.4097H95.6234Z" fill="#191920"/>
<path d="M88.2212 21.6747C85.1018 21.6747 83.7773 20.3379 83.7773 17.5528V15.0276L87.2061 15.0152V17.7756C87.2061 18.6297 87.5899 19.001 88.2335 19.001C88.8772 19.001 89.261 18.6297 89.261 17.7756V15.597C89.261 14.7181 88.9144 14.322 88.184 14.0249L86.3892 13.2575C84.78 12.6385 83.8269 11.6235 83.8269 9.35828V7.39013C83.8269 4.75354 85.1761 3.4043 88.184 3.4043C91.1548 3.4043 92.5041 4.74116 92.5041 7.41488V9.70488H89.1248V7.27872C89.1248 6.44937 88.7658 6.07802 88.184 6.07802C87.6023 6.07802 87.2433 6.44937 87.2433 7.22921V9.14785C87.2433 9.98958 87.5775 10.3981 88.3078 10.6951L90.1027 11.475C91.7738 12.1187 92.7021 13.1337 92.7021 15.4856V17.627C92.7021 20.3379 91.3653 21.6747 88.2212 21.6747Z" fill="#191920"/>
<path d="M75.6445 21.4097V3.65918H82.9725V6.43193H79.0733V11.0491H82.1555V13.7599H79.0733V18.637H82.9973V21.4097H75.6445Z" fill="#191920"/>
<path d="M62.9692 21.4097L60.3945 3.65918H63.8728L64.9869 16.1118L66.0762 3.65918H69.4431L70.5572 16.1242L71.6465 3.65918H75.0505L72.4634 21.4097H68.7871L67.7101 9.57603L66.6456 21.4097H62.9692Z" fill="#191920"/>
<path d="M51.0117 21.4097V3.65918H55.6536C58.5501 3.65918 59.9489 5.05793 59.9489 8.17728V16.8916C59.9489 19.9986 58.5501 21.4097 55.6536 21.4097H51.0117ZM55.1461 18.637C55.9754 18.637 56.4706 18.1542 56.4706 17.0649V7.9916C56.4706 6.91469 55.9754 6.43193 55.1461 6.43193H54.4405V18.637H55.1461Z" fill="#191920"/>
<path d="M46.4805 21.4097V3.65918H49.9093V21.4097H46.4805Z" fill="#191920"/>
<path d="M33.9531 21.4097V3.65918H38.4217L39.6348 13.2029L40.8479 3.65918H45.366V21.4097H42.1971L42.2095 8.68479L40.5384 21.4097H38.5455L36.8744 8.57338L36.8868 21.4097H33.9531Z" fill="#191920"/>
<path d="M98.8171 28.7894V27.2593L97.4023 24.5391H98.2281L99.2664 26.7007H99.1086L100.147 24.5391H100.967L99.5457 27.2593V28.7894H98.8171Z" fill="#444348"/>
<path d="M92.4375 28.7894V24.5391H93.2997L94.6598 27.2836L96.0078 24.5391H96.8761V28.7894H96.1474V25.7899L94.9452 28.1944H94.3744L93.1661 25.796V28.7894H92.4375Z" fill="#444348"/>
<path d="M88.9258 28.7894V24.5391H91.6703V25.128H89.6544V26.3485H91.4881V26.9253H89.6544V28.2004H91.6703V28.7894H88.9258Z" fill="#444348"/>
<path d="M84.668 28.7894V24.5391H86.0402C86.5341 24.5391 86.9409 24.6261 87.2607 24.8002C87.5845 24.9742 87.8233 25.2211 87.9772 25.5409C88.135 25.8567 88.214 26.2331 88.214 26.6703C88.214 27.0994 88.135 27.4738 87.9772 27.7936C87.8233 28.1094 87.5845 28.3543 87.2607 28.5283C86.9409 28.7024 86.5341 28.7894 86.0402 28.7894H84.668ZM85.3966 28.1701H86.0038C86.3722 28.1701 86.6616 28.1114 86.8721 27.994C87.0866 27.8725 87.2384 27.7005 87.3275 27.4779C87.4206 27.2512 87.4671 26.982 87.4671 26.6703C87.4671 26.3546 87.4206 26.0854 87.3275 25.8627C87.2384 25.6361 87.0866 25.462 86.8721 25.3406C86.6616 25.2151 86.3722 25.1523 86.0038 25.1523H85.3966V28.1701Z" fill="#444348"/>
<path d="M80.1602 28.7894L81.7146 24.5391H82.5282L84.0826 28.7894H83.3115L82.1153 25.3891L80.9191 28.7894H80.1602ZM80.8524 27.7875L81.0467 27.2107H83.1415L83.3358 27.7875H80.8524Z" fill="#444348"/>
<path d="M77.9425 28.8629C77.5215 28.8629 77.1572 28.7718 76.8496 28.5896C76.546 28.4034 76.3112 28.1464 76.1452 27.8185C75.9833 27.4866 75.9023 27.104 75.9023 26.6709C75.9023 26.2337 75.9833 25.8512 76.1452 25.5233C76.3112 25.1914 76.546 24.9323 76.8496 24.7461C77.1572 24.5599 77.5215 24.4668 77.9425 24.4668C78.4485 24.4668 78.8614 24.5923 79.1812 24.8433C79.501 25.0902 79.7034 25.4403 79.7884 25.8937H78.9869C78.9302 25.6549 78.8148 25.4666 78.6408 25.329C78.4667 25.1914 78.2319 25.1226 77.9364 25.1226C77.6693 25.1226 77.4385 25.1853 77.2442 25.3108C77.054 25.4322 76.9062 25.6103 76.801 25.8451C76.6998 26.0759 76.6492 26.3511 76.6492 26.6709C76.6492 26.9907 76.6998 27.266 76.801 27.4967C76.9062 27.7234 77.054 27.8995 77.2442 28.0249C77.4385 28.1464 77.6693 28.2071 77.9364 28.2071C78.2319 28.2071 78.4667 28.1444 78.6408 28.0189C78.8148 27.8893 78.9302 27.7112 78.9869 27.4845H79.7884C79.7074 27.9136 79.505 28.2516 79.1812 28.4986C78.8614 28.7414 78.4485 28.8629 77.9425 28.8629Z" fill="#444348"/>
<path d="M71.7891 28.7894L73.3435 24.5391H74.1571L75.7115 28.7894H74.9404L73.7442 25.3891L72.5481 28.7894H71.7891ZM72.4813 27.7875L72.6756 27.2107H74.7704L74.9647 27.7875H72.4813Z" fill="#444348"/>
<path d="M67.9148 28.7894V27.2593L66.5 24.5391H67.3258L68.3641 26.7007H68.2062L69.2445 24.5391H70.0642L68.6434 27.2593V28.7894H67.9148Z" fill="#444348"/>
<path d="M64.4894 28.8629C64.0684 28.8629 63.7041 28.7718 63.3964 28.5896C63.0928 28.4034 62.8581 28.1464 62.6921 27.8185C62.5302 27.4866 62.4492 27.104 62.4492 26.6709C62.4492 26.2337 62.5302 25.8512 62.6921 25.5233C62.8581 25.1914 63.0928 24.9323 63.3964 24.7461C63.7041 24.5599 64.0684 24.4668 64.4894 24.4668C64.9954 24.4668 65.4083 24.5923 65.7281 24.8433C66.0478 25.0902 66.2502 25.4403 66.3353 25.8937H65.5338C65.4771 25.6549 65.3617 25.4666 65.1877 25.329C65.0136 25.1914 64.7788 25.1226 64.4833 25.1226C64.2162 25.1226 63.9854 25.1853 63.7911 25.3108C63.6009 25.4322 63.4531 25.6103 63.3479 25.8451C63.2467 26.0759 63.1961 26.3511 63.1961 26.6709C63.1961 26.9907 63.2467 27.266 63.3479 27.4967C63.4531 27.7234 63.6009 27.8995 63.7911 28.0249C63.9854 28.1464 64.2162 28.2071 64.4833 28.2071C64.7788 28.2071 65.0136 28.1444 65.1877 28.0189C65.3617 27.8893 65.4771 27.7112 65.5338 27.4845H66.3353C66.2543 27.9136 66.0519 28.2516 65.7281 28.4986C65.4083 28.7414 64.9954 28.8629 64.4894 28.8629Z" fill="#444348"/>
<path d="M58.2422 28.7894V24.5391H58.9708L61.0171 27.6115V24.5391H61.7457V28.7894H61.0171L58.9708 25.7231V28.7894H58.2422Z" fill="#444348"/>
<path d="M54.7305 28.7894V24.5391H57.475V25.128H55.4591V26.3485H57.2928V26.9253H55.4591V28.2004H57.475V28.7894H54.7305Z" fill="#444348"/>
<path d="M51.8905 28.8629C51.4897 28.8629 51.1375 28.7718 50.8339 28.5896C50.5344 28.4075 50.3016 28.1545 50.1357 27.8306C49.9697 27.5028 49.8867 27.1202 49.8867 26.683C49.8867 26.2499 49.9717 25.8674 50.1417 25.5355C50.3118 25.1995 50.5546 24.9384 50.8704 24.7522C51.1902 24.5619 51.5686 24.4668 52.0058 24.4668C52.4997 24.4668 52.9085 24.5862 53.2324 24.825C53.5602 25.0598 53.7727 25.3877 53.8699 25.8087H53.0502C52.9895 25.5982 52.8701 25.4343 52.6919 25.3169C52.5138 25.1995 52.2831 25.1408 51.9997 25.1408C51.7123 25.1408 51.4654 25.2035 51.259 25.329C51.0566 25.4504 50.9007 25.6286 50.7914 25.8633C50.6862 26.0941 50.6336 26.3693 50.6336 26.6891C50.6336 27.0089 50.6862 27.2842 50.7914 27.5149C50.9007 27.7456 51.0546 27.9217 51.2529 28.0432C51.4513 28.1606 51.684 28.2192 51.9512 28.2192C52.3479 28.2192 52.6474 28.1079 52.8498 27.8853C53.0522 27.6627 53.1716 27.3732 53.2081 27.017H52.109V26.4645H53.9428V28.79H53.2749L53.2141 28.2071C53.121 28.3447 53.0138 28.4641 52.8923 28.5653C52.7709 28.6625 52.6272 28.7374 52.4612 28.79C52.2993 28.8386 52.109 28.8629 51.8905 28.8629Z" fill="#444348"/>
<path d="M46.2734 28.7894V24.5391H47.7975C48.1335 24.5391 48.4108 24.5978 48.6293 24.7151C48.852 24.8285 49.0159 24.9823 49.1212 25.1766C49.2305 25.3669 49.2851 25.5834 49.2851 25.8263C49.2851 26.053 49.2325 26.2635 49.1272 26.4578C49.022 26.6521 48.8581 26.8079 48.6354 26.9253C48.4128 27.0427 48.1274 27.1014 47.7793 27.1014H47.0021V28.7894H46.2734ZM48.4897 28.7894L47.5971 26.9132H48.3865L49.3215 28.7894H48.4897ZM47.0021 26.561H47.7489C48.0201 26.561 48.2185 26.4962 48.344 26.3667C48.4735 26.2331 48.5383 26.0591 48.5383 25.8445C48.5383 25.634 48.4755 25.466 48.35 25.3406C48.2245 25.211 48.0242 25.1463 47.7489 25.1463H47.0021V26.561Z" fill="#444348"/>
<path d="M42.7656 28.7894V24.5391H45.5101V25.128H43.4943V26.3485H45.328V26.9253H43.4943V28.2004H45.5101V28.7894H42.7656Z" fill="#444348"/>
<path d="M37.4648 28.7894V24.5391H38.3271L39.6872 27.2836L41.0351 24.5391H41.9034V28.7894H41.1748V25.7899L39.9725 28.1944H39.4018L38.1935 25.796V28.7894H37.4648Z" fill="#444348"/>
<path d="M33.9531 28.7894V24.5391H36.6976V25.128H34.6818V26.3485H36.5155V26.9253H34.6818V28.2004H36.6976V28.7894H33.9531Z" fill="#444348"/>
</g>
<defs>
<clipPath id="clip0_9881_9441">
<rect width="101.502" height="32.2679" fill="white"/>
</clipPath>
<clipPath id="clip1_9881_9441">
<rect width="26.5058" height="32.2679" fill="white"/>
</clipPath>
</defs>
</svg>
